# xmcd CD database file
#
# Track frame offsets:
#	150
#	13182
#	32195
#	47711
#	82099
#	99937
#	124650
#	156469
#	168291
#	186170
#	202670
#	225170
#	249327
#	261927
#	277467
#	293574
#	328326
#
# Disc length: 4589 seconds
#
# Revision: 0
# Processed by: cddbd v1.5.2PL0 Copyright (c) Steve Scherf et al.
# Submitted via: CDex 1.70beta2
#
DISCID=ed11eb11
DTITLE=Ella Fitzgerald - Sings Ballads For Lovers
DYEAR=1900
DGENRE=Jazz
TTITLE0=Misty
TTITLE1=I didn't know about you
TTITLE2=There's a lull in my life
TTITLE3=These foolish things
TTITLE4=Midnight sun
TTITLE5=Prelude to a kiss
TTITLE6=Bewitched
TTITLE7=I'm getting sentimental over you
TTITLE8=You're blase
TTITLE9=Lush life
TTITLE10=I love paris
TTITLE11=Sophisticated lady
TTITLE12=In a sentimental mood
TTITLE13=Easy to love
TTITLE14=Let's do it
TTITLE15=Do nothin' till you hear from me
TTITLE16=Ev'ry time we say goodbye
EXTD=
EXTT0=
EXTT1=
EXTT2=
EXTT3=
EXTT4=
EXTT5=
EXTT6=
EXTT7=
EXTT8=
EXTT9=
EXTT10=
EXTT11=
EXTT12=
EXTT13=
EXTT14=
EXTT15=
EXTT16=
PLAYORDER=
